<?xml version="1.0" encoding="utf-8"?>
<!-- Generator: Adobe Illustrator 16.0.4, SVG Export Plug-In . SVG Version: 6.00 Build 0)  -->
<!DOCTYPE svg PUBLIC "-//W3C//DTD SVG 1.1//EN" "http://www.w3.org/Graphics/SVG/1.1/DTD/svg11.dtd">
<svg version="1.1" id="Layer_1" xmlns="http://www.w3.org/2000/svg" xmlns:xlink="http://www.w3.org/1999/xlink" x="0px" y="0px"
	 width="244px" height="397.367px" viewBox="0 0 244 397.367" enable-background="new 0 0 244 397.367" xml:space="preserve">
<g>
	<path fill="#74BDEC" d="M90.744,27.925c7.893-12.284,18.392-21.461,32.254-26.351c13.568-4.787,28.814,1.639,37.232,15.267
		c2.604,4.211,4.758,8.626,6.162,13.34c0.77,2.575,2.078,2.941,4.387,2.37c6.003-1.487,12.164-2.453,18.033-4.339
		c13.201-4.242,23.1,1.09,31.439,10.521c8.577,9.7,13.264,21.347,13.535,34.229c0.347,16.387-7.311,34.356-26.812,38.117
		c-3.722,0.718-4.24,2.459-3.656,5.83c2.287,13.23,3.854,26.566,5.402,39.901c0.645,5.556,1.299,11.111,1.947,16.667
		c-4.186,1.209-7.279,3.982-10.285,6.966c-0.853,0.847-1.847,2.989-3.562,0.791c-1.358-10.204-2.133-20.465-3.102-30.704
		c-1.146-12.112-2.49-24.199-3.928-36.277c-0.289-2.44-0.398-4.896-0.801-7.327c-0.436-2.629,0.718-4.163,3.35-4.849
		c4.076-1.062,8.145-2.159,12.232-3.167c10.662-2.629,16.287-9.702,17.555-20.28c0.723-6.03,0.862-12.156-0.453-18.173
		c-1.388-6.339-4.369-11.822-9.113-16.298c-5.742-4.921-12.188-6.604-19.518-4.257c-6.223,1.992-12.637,3.245-18.936,4.952
		c-4.506,0.87-8.856,2.892-13.621,1.84c-2.237-1.983-2.02-4.86-2.53-7.409c-1.368-6.818-3.424-13.308-7.854-18.824
		c-4.006-4.987-8.957-8.439-15.422-9.387c-0.35-0.051-0.689-0.136-1.027-0.232c-2.573-0.49-5.143-0.46-7.707,0.05
		c-9.894,1.883-17.48,7.389-23.688,15.063c-0.724,0.895-1.243,2.011-2.53,2.283c-2.085-0.079-4.168-0.271-6.211,0.43
		C92.479,29.019,91.439,29.025,90.744,27.925z"/>
	<path fill="#74BDEC" d="M90.744,27.925c1.832,0.999,3.266-0.835,4.961-0.7c1.332,0.106,2.792-0.513,3.961,0.63
		c0.467,0.834,0.163,1.628-0.271,2.31c-2.984,4.688-4.534,9.964-6.321,15.15c-1.268,3.679-2.186,4.169-6.017,3.46
		c-4.95-0.916-9.676-2.649-14.496-4.042c-0.517-0.185-1.003-0.437-1.478-0.707c-4.034-1.821-7.957-3.871-11.927-5.825
		c-5.715-2.812-11.412-2.779-17.053,0.244c-9.12,5.565-12.665,14.404-13.811,24.375c-0.501,4.365-0.517,8.873,0.332,13.278
		c0.177,1.033,0.298,2.077,0.61,3.084c1.945,9.473,8.829,14.28,16.915,17.988c1.153,0.528,2.847,0.525,2.916,2.416
		c-4.591,1.959-9.279,1.266-13.899,0.315c-4.13-0.851-7.771-2.963-11.327-5.172C13.863,77.39,15.11,60.168,24.32,42.995
		c3.8-7.085,8.774-12.951,16.176-16.507c8.371-4.021,16.523-3.747,24.376,1.239c5.903,3.747,12.279,6.221,19.022,7.956
		c1.919,0.494,2.646,0.118,3.393-1.669C88.18,31.875,89.569,29.945,90.744,27.925z"/>
	<path fill="#D52D00" d="M167.805,367.675c3.697,8.266,6.245,16.824,7.104,25.887c0.267,2.812-0.247,3.934-3.396,3.793
		c-21.049-0.938-37.281-9.662-47.104-28.82c-1.087-2.121-2.678-4.045-3.069-6.506c-3.094-4.184-4.444-8.812-3.592-14.01
		c4.921-2.135,9.991-1.1,15.026-0.709c1.852,1.127,0.799,2.342,0.078,3.521c-2.842,4.652-2.514,7.525,1.211,11.541
		c2.192,2.363,4.72,4.27,7.824,5.064c8.17,2.1,16.307,2.553,24.178-1.316C167.35,365.853,167.758,366.562,167.805,367.675z"/>
	<path fill="#F9D0B7" d="M175.453,202.697c0.812-0.953,1.922-1.275,3.089-1.279c4.272-0.016,8.426-1.069,12.657-1.401
		c2.773-0.052,16.407-13.423,8.635-4.46c19.103-13.361,9.578,22.669,18.951,25.591c1.125,0.351-4.393,2.481-3.842,3.701
		c3.88,10.43,4.394,21.312,3.406,32.166c-1.434,15.747-7.43,29.839-17.291,42.233c-7.586,9.535-16.658,17.342-27.3,23.307
		c-0.808,0.453-1.573,0.979-2.36,1.469c-3.525,2.873-7.461,4.859-12.006,5.514c-3.744,1.205-7.488,2.41-11.232,3.613
		c-0.864,1.104-2.152,1.322-3.398,1.57c-9.271,1.842-18.619,2.779-28.079,2.32c-1.268-0.062-2.591-0.006-3.535-1.117
		c-4.292-0.664-8.6-1.248-12.874-2.02c-3.271-0.59-6.499-1.414-9.745-2.135c-10.736-3.561-20.853-8.389-30.196-14.793
		c-14.114-10.643-24.991-23.833-31.121-40.54c-4.526-12.338-6.204-25.091-4.056-38.192c2.262-0.44-4.865-8.935-4.405-7.06
		c0.145,3.029,2.402-14.802,3.087-11.8c2.326,10.199,6.648-26.954,17.369-27.392"/>
	<path fill="#D52D00" d="M58.944,389.587c1.876-9.303,4.413-18.367,9.698-26.412c1.984-3.02,4.06-5.979,6.908-8.285
		c1.696-0.346,2.229,1.086,2.835,2.078c5.432,8.879,13.552,12.234,23.642,11.898c2.049-0.068,4.51-0.873,5.987,1.576
		c-7.661,14.809-20.228,22.797-36.209,26.021c-3.22,0.65-6.485,0.742-9.764,0.891c-2.876,0.131-3.683-0.924-3.29-3.568
		C58.958,392.408,58.889,390.988,58.944,389.587z"/>
	<path fill="#74BDEC" d="M23.838,94.728c4.125,0.029,6.997,3.31,10.881,4.125c4.801,1.008,9.521,1.229,14.301,0.162
		c2.261-0.867,3.97,0.879,5.973,1.253c3.031,0.771,3.707,2.833,3.186,5.646c-3.479,18.767-6.136,37.658-8.518,56.591
		c-0.22,1.742-0.25,3.505-0.592,5.232c-1.188,2.29,0.612,5.309-1.764,7.31c-2.14-3.991-5.635-3.583-9.291-2.976
		c-1.478,0.246-3.208,1.189-4.432-0.66c0.802-10.109,2.791-20.046,4.474-30.021c1.646-9.754,3.413-19.495,5.479-29.167
		c0.566-2.65-0.182-3.465-2.393-4.229c-4.203-1.451-8.263-3.263-11.596-6.323C27.325,99.631,25.455,97.277,23.838,94.728z"/>
	<path fill="#D52D00" d="M108.015,370.443c-1.83-1.141-3.875-0.744-5.81-0.654c-10.923,0.502-19.5-3.375-25.092-13.072
		c-0.394-0.684-1.037-1.221-1.563-1.826c3.919-4.439,8.761-7.562,14.154-9.895c1.349-1.719,3.105-1.127,4.811-0.859
		c5.496,0.859,10.849,2.557,16.448,2.807c1.582,0.084,3.213-0.197,4.698,0.613c0.61,0.459,0.882,1.131,0.761,1.826
		c-1.167,6.727-2.591,13.363-6.847,18.977C109.055,369.052,108.535,369.748,108.015,370.443z"/>
	<path fill="#74BDEC" d="M213.59,194.352c-4.035,1.483-8.072,2.968-12.109,4.452c-1.631,1.529-3.66,1.642-5.731,1.611
		c-2.488-0.285-2.883-2.095-2.748-4.062c0.196-2.888,0.507-5.779,1.638-8.496c1.729-1.587,1.486-4.133,2.854-5.9
		c3.094-2.292,5.219-5.729,8.729-7.499c1.354-0.684,2.635-2.21,4.451-0.981c0.754,5.753,1.627,11.498,1.66,17.317
		C212.338,192.156,212.93,193.251,213.59,194.352z"/>
	<path fill="#74BDEC" d="M34.287,193.78c-1.027-0.508-2.055-1.016-3.082-1.525c-0.8-5.129,0.838-10.065,1.292-15.092
		c0.171-1.899-0.045-3.989,1.085-5.753c3.131,0.742,6.033-1.079,9.172-0.762c2.806,0.284,4.671,1.098,4.209,4.359
		c1.571,2.366,0.944,4.924,0.658,7.448c-0.43,1.43-1.698,1.533-2.83,1.572c-4.716,0.166-6.996,3.23-8.573,7.106
		C35.782,192.21,35.704,193.456,34.287,193.78z"/>
	<path fill="#FEFEFE" d="M48.274,167.781c0.642-10.475,2.331-20.826,3.85-31.188c1.552-10.591,3.383-21.145,5.316-31.674
		c0.58-3.16-1.56-3.311-3.405-4.052c-0.005-1.953,1.583-2.543,2.933-3.034c10.321-3.754,13.268-12.089,13.503-21.927
		c0.22-9.212-0.01-18.433,0.103-27.647c0.019-1.521-0.734-3.619,1.742-4.237c5.069,1.299,10.172,2.479,15.192,3.946
		c2.582,0.754,3.791,0.172,4.567-2.469c1.814-6.171,4.091-12.18,7.59-17.644c5.972-8.107,13.263-14.44,23.204-17.176
		c0.89-0.245,1.838-0.276,2.759-0.406c2.847-0.469,5.69-0.497,8.535,0.016l0.005-0.01c2.593,2.003,5.3,3.859,7.857,5.906
		c8.769,7.018,11.86,16.477,11.478,27.321c-0.112,3.176-0.004,3.423,3.067,2.345c1.283-0.45,2.498-0.655,3.634,0.318
		c4.815,0.32,9.325-1.379,13.979-2.128c5.644-0.89,11.281-1.727,16.901,0.188c1.323,0.451,2.72,0.713,3.676,1.86
		c0.872,1.433,0.284,2.945,0.236,4.436c-0.253,7.715,0.562,15.116,5.66,21.467c2.272,2.83,5.192,4.629,8.317,6.226
		c1.332,0.681,2.905,1.006,3.553,2.614c0.113,3.208-1.271,5.9-2.971,8.464c-5.197,7.837-12.373,12.72-21.744,13.913
		c-2.942,0.375-3.443,1.567-2.922,4.132c2.33,11.475,1.045,22.75-1.354,34.112c-1.472,6.977-2.151,14.131-4.705,20.849
		c-1.953,5.133-4.046,10.232-7.965,14.292c-1.284,0.479-2.226-0.282-3.236-0.867c-7.935-4.593-16.376-5.228-25.071-2.904
		c-4.474,1.196-7.967,3.887-10.007,8.178c-1.228,2.582-2,5.235-1.032,8.131c0.401,1.207,0.799,2.493-0.211,3.658
		c-1.264,0.76-2.57,0.714-3.901,0.218c-1.751-1.128-2.007-3.091-2.569-4.832c-3.254-10.053-10.472-15.337-20.636-16.409
		c-10.91-1.151-20.04,2.086-26.039,12.062c-1.25,2.079-1.601,5.034-4.526,5.894c-0.772,0.069-1.496-0.054-2.132-0.529
		c-0.983-1.953-0.814-4.08-0.903-6.164c-0.069-1.63,0.076-3.271-0.205-4.891c-0.453-2.618-1.224-5.042-4.082-6.022
		c-2.927-1.003-5.293,0.006-7.182,2.236c-2.008,2.37-4.082,2.34-6.376,0.49C50.464,172.989,46.639,172.126,48.274,167.781z"/>
	<path fill="#FEFEFE" d="M170.695,176.311c5.49-8.559,9.188-17.819,10.807-27.871c1.366-8.49,2.975-16.959,3.855-25.501
		c0.598-5.785-1.002-11.559-1.785-17.318c-0.217-1.587-0.596-2.998,1.849-3.179c13.957-1.035,22.604-8.673,26.779-21.776
		c-0.487-0.698-0.64-1.473-0.544-2.312c0.755-6.605-0.006-12.944-3.312-18.838c-0.169-0.301-0.148-0.675-0.172-1.021
		c0.637-3.753,0.125-7.669,1.491-11.311c0.61-1.625,0.719-3.801,3.269-3.817c4.367,3.463,7.114,8.065,8.69,13.28
		c2.979,9.856,3.114,19.826-0.408,29.551c-2.298,6.342-6.756,10.867-13.493,12.724c-5.169,1.425-10.32,2.936-15.539,4.156
		c-1.895,0.442-2.621,1.19-2.396,3.056c1.335,10.986,2.749,21.963,3.94,32.965c0.916,8.461,1.545,16.953,2.303,25.432
		c0.52,5.805,1.482,11.574,1.459,17.425c-0.508,1.957,1.029,4.698-2.157,5.627c-0.627,0.544-1.334,0.983-2.153,1.093
		c-10.596,1.425-21.146,3.29-31.888,3.316c-0.351,0.001-0.688-0.108-1.021-0.192c-1.791-0.826-1.754-2.36-0.699-3.438
		C163.398,184.45,166.146,179.543,170.695,176.311z"/>
	<path fill="#FEFEFE" d="M212.932,43.368c-3.32,2.95-3.022,7.09-3.41,10.926c-0.136,1.359,0.291,2.739-0.823,3.863
		c-0.347,0.139-0.761,0.141-0.946-0.141c-3.309-4.968-8.382-7.848-13.117-11.125c-2.978-2.088-6.477-2.489-9.916-2.756
		c-3.492-0.271-7.021-0.082-10.533-0.094c7.598-2.056,15.102-4.65,22.822-5.989C202.844,37.039,208.527,38.879,212.932,43.368z"/>
	<path fill="#FEFEFE" d="M160.205,46.168c-1.475,0.107-3.057-0.285-4.25,1.054c-0.637,0.712-1.42,1.318-2.447,0.82
		c-1.15-0.558-1.271-1.712-1.051-2.727c0.675-3.112,0.345-6.169-0.111-9.262c-1.543-10.426-7.592-17.695-16.147-23.226
		c-0.978-0.632-2.123-1.083-2.028-2.548c9.145,0.756,14.964,6.327,19.432,13.657C157.746,30.736,158.697,38.549,160.205,46.168z"/>
	<path fill="#D9EDF8" d="M134.164,10.289c-2.846-0.005-5.689-0.01-8.535-0.015C128.477,9.265,131.32,9.201,134.164,10.289z"/>
	<path fill="#DB8A55" d="M41.207,317.14c4.053-2.156,7.878-0.814,10.977,1.625c3.117,2.453,5.167,3.035,7.032-0.992
		c0.167-0.359,0.735-0.533,1.118-0.795c1.153-0.445,2.08,0.154,2.927,0.752c7.927,5.594,16.74,9.354,25.825,12.559
		c0.664,0.234,1.287,0.564,1.865,0.977c0.872,0.646,1.782,1.496,1.311,2.578c-1.397,3.207-1.103,6.801-2.463,9.992
		c-11.484-2.42-21.917-7.369-31.812-13.492C51.914,326.587,46.169,322.343,41.207,317.14z"/>
	<path fill="#DB8A55" d="M89.797,343.835c-0.324-3.043-0.132-6.053,1.279-8.801c0.71-1.381,0.682-2.35-0.547-3.266
		c0.907-0.84,1.962-0.645,2.986-0.365c5.672,1.541,11.44,2.5,17.296,2.973c0.939,0.076,1.875,0.262,2.372,1.234
		c-0.986,2.596-0.47,5.309-0.606,7.973c-0.081,1.588,0.247,3.371-1.643,4.279c-5.976-0.113-11.653-2.057-17.511-2.916
		c-1.295-0.189-2.481-0.398-3.72,0.049C89.735,344.609,89.766,344.222,89.797,343.835z"/>
	<path fill="#F9D0B7" d="M122.959,217.914c0.456,3.324,1.352,6.471,4.689,8.021c3.369,1.563,6.545,0.991,9.361-1.472
		c0.938-0.819,1.59-2.049,3.032-2.18"/>
	<path fill="#F9D0B7" d="M116.205,219.272"/>
	<path fill="#DB8A55" d="M213.59,194.352c8.555,11.673,14.385,24.532,16.936,38.828c6.968,39.021-11.828,75.769-44.879,96.817
		c-5.244,3.34-10.881,5.914-16.312,8.889c-0.773,1.008-1.809,1.268-3.01,1.057c-4.01-1.596-8.256-2.359-12.393-3.51
		c-2.219-0.615-4.527-1.148-5.908-3.303c3.107-2.955,7.08-3.51,11.082-3.984c1.064,0.348,1.593,1.309,2.322,2.047
		c2.643,2.668,5.885,3.252,8.51,1.553c2.605-1.688,3.019-3.697,1.56-7.668c-0.162-0.439-0.312-0.877-0.31-1.355
		c0.621-1.6,2.213-2.004,3.48-2.773c20.441-12.439,34.893-29.557,40.803-53.078c3.58-14.246,3.037-28.518-1.199-42.613
		c-2.838-8.178-6.449-15.961-11.631-22.957c-0.818-1.104-1.844-2.174-1.351-3.77C205.068,196.191,208.979,194.239,213.59,194.352z"
		/>
	<path fill="#F9D0B7" d="M71.644,202.109c0.738-0.449,1.518-0.501,2.326-0.229c1.083,0.539,1.252,1.637,1.509,2.632"/>
	<path fill="#DB8A55" d="M113.148,335.923c11.801,0.713,23.437-0.645,35.012-2.773c4.309,2.279,9.059,3.137,13.715,4.316
		c1.634,0.414,3.438,0.613,4.632,2.076c-5.392,2.625-11.159,4.107-16.935,5.555c-0.986,0.246-2.178,0.027-2.655,1.299
		c-4.46,0.814-8.817,2.488-13.479,1.627c-4.145-0.025-8.289-0.07-12.436-0.059c-1.102,0.004-2.344-0.387-3.187,0.768
		c-0.622-0.256-1.244-0.512-1.865-0.768c-1.672-0.033-3.344-0.066-5.016-0.1c1.296-3.264,0.859-6.666,0.416-9.949
		C111.091,335.998,111.94,336.033,113.148,335.923z"/>
	<path fill="#DB8A55" d="M159.393,329.537c4.002-1.838,8.004-3.676,12.006-5.514c2.903,3.305,2.812,6.445-0.263,9.057
		c-2.921,2.48-7.72,1.994-10.351-1.123C160.193,331.257,159.85,330.349,159.393,329.537z"/>
	<path fill="#DB8A55" d="M29.922,219.22c-2.895-0.025-4.223-2.286-5.436-4.268c-1.202-1.963-2.373-3.937-3.735-5.793
		c2.524-6.229,6.275-11.7,10.453-16.906c1.353-0.456,2.354,0.46,3.484,0.881c2.511,1.579,5.458,2.125,8.096,3.404
		c0.769,1.291-0.029,2.267-0.738,3.173c-4.288,5.486-7.621,11.523-10.463,17.854C31.244,218.322,30.864,219.06,29.922,219.22z"/>
	<path fill="#DB8A55" d="M41.207,317.14c-1.143-0.988-2.285-1.979-3.428-2.969c-9.778-10.754-17.704-22.664-22.106-36.625
		c-7.392-23.438-6.031-46.291,5.078-68.387c1.265,0.256,2.117,1.15,2.592,2.192c1.549,3.394,4.108,5.875,6.938,8.153
		c-1.208,6.279-3.682,12.265-4.281,18.681c-2.063,14.981-0.003,29.399,6.261,43.133c5.821,12.761,14.274,23.528,25.339,32.216
		c1.163,0.914,2.571,1.701,2.91,3.365c-0.209,1.066-1.017,1.799-1.517,2.701c-1.387,2.512-3.36,2.834-5.45,1.139
		C49.896,317.781,45.749,316.865,41.207,317.14z"/>
	<path fill="#FEFEFE" d="M72.316,44.022c-1.214,0.995-0.758,2.377-0.763,3.605c-0.035,9.47-0.064,18.939,0.007,28.409
		c0.021,2.714-0.535,5.333-1.062,7.93c-1.457,7.185-5.756,12.004-12.682,14.531c-1.378,0.503-2.926,0.944-3.783,2.371
		c-1.671-0.619-3.343-1.236-5.014-1.854c-9.875-3.413-18.222-8.42-20.56-19.7c3.116-1.341,4.578,1.15,5.927,2.952
		c3.147,4.205,7.249,5.574,12.265,5.2c4.626-0.345,7.281-2.621,8.129-7.219c0.147-0.794,0.492-1.707-0.22-2.309
		c-0.761-0.643-1.587-0.045-2.256,0.357c-3.868,2.329-8.086,2.823-12.49,2.592c-4.45-0.234-8.467-1.537-11.896-4.454
		c-2.084-13.52-0.482-26.037,9.927-36.11c1.159-1.121,2.378-2.251,4.062-2.604c2.867-0.443,5.729-0.993,8.624-0.177
		c2.557,0.721,4.831,1.898,6.032,4.391c1.021,2.118,2.684,2.694,4.85,2.653c3.425-0.066,6.91,0.469,10.137-1.218
		C71.807,43.587,72.061,43.805,72.316,44.022z"/>
	<path fill="#FEFEFE" d="M27.919,76.435c1.981-0.291,3.121,1.428,4.754,1.997c6.971,2.426,13.737,2.479,20.234-1.48
		c0.732-0.446,1.361-1.522,2.436-0.691c0.862,0.665,0.831,1.696,0.684,2.597c-0.861,5.259-2.553,9.389-9.824,9.609
		c-5.484,0.166-9.798-1.32-12.844-6.131c-1.042-1.646-2.654-3.007-4.897-3.02C27.59,78.485,27.996,77.415,27.919,76.435z"/>
	<path fill="#FEFEFE" d="M71.551,43.37c-3.999,4.259-9.007,1.465-13.548,1.861c-0.838,0.073-1.436-1.009-1.869-1.894
		c-1.953-3.986-5.121-5.742-9.473-5.206c-1.636,0.202-3.205,0.161-4.752-0.409c5.36-3.434,11.008-3.231,16.573-0.857
		C62.951,38.77,67.203,41.182,71.551,43.37z"/>
	<path fill="#D52D00" d="M133.438,348.021c4.492-0.549,8.812-2.543,13.48-1.627c8.486,4.646,15.195,11.061,19.626,19.738
		c-1.604,3.234-4.978,3.072-7.655,3.324c-5.783,0.549-11.646,0.928-17.358-1.068c-4.027-1.406-7.229-3.861-9.776-7.143
		c-2.814-3.625-2.521-7.553,0.564-11.113C132.864,349.501,133.423,348.917,133.438,348.021z"/>
	<path fill="#FEFEFE" d="M48.274,167.781c0.116,2.448,5.299,7.71,7.613,7.811c1.186,0.052,1.579-0.828,2.143-1.542
		c2.137-2.707,4.779-4.103,8.283-3.098c3.42,0.981,4.771,3.73,5.057,6.859c0.333,3.656,0.14,7.359,0.176,11.042
		c-1.163,1.268-2.607,0.664-3.933,0.517c-4.839-0.531-9.64-1.33-14.418-2.262c-1.452-0.448-2.996-0.597-4.399-1.167
		c-1.07-0.434-2.727-0.655-1.832-2.573c0-2.787-0.001-5.574-0.001-8.361C48.416,172.783,46.774,169.997,48.274,167.781z"/>
	<path fill="#74BDEC" d="M196.094,199.565c-1.191,1.248-3.111,0.159-4.322,1.347c-5.377,0.715-10.754,1.432-16.131,2.147
		c-0.582,0.526-1.229,0.603-1.931,0.272c-0.78-4.753-4.556-6.64-8.218-8.71c-2.619-1.481-5.838-1.296-8.289-3.155
		c0.596-1.063,1.378-0.991,2.248-0.371c8.958,0.228,17.732-1.541,26.587-2.437c3.104-0.313,6.194-0.715,9.294-1.076
		c-0.471,3.094-0.973,6.184-1.395,9.285C193.725,198.444,194.068,199.712,196.094,199.565z"/>
	<path fill="#74BDEC" d="M46.965,183.368c1.209,2.913,4.376,1.438,6.277,2.801c4.05,3.316,3.948,7.9,3.772,12.488
		c-0.018,0.464-0.525,0.738-0.967,0.926c-4.616,0.015-8.946-1.457-13.347-2.558c-2.999-0.575-5.876-1.468-8.413-3.246
		c1.273-1.233,0.943-3.049,1.628-4.494C38.133,184.617,41.384,182.881,46.965,183.368z"/>
	<path fill="#FEFEFE" d="M73.551,189.032c2.037-1.418,2.772-3.781,3.931-5.767c4.784-8.192,11.991-12.037,21.254-12.581
		c6.102-0.358,11.852,0.796,17.092,3.967c6.686,4.044,9.494,10.619,11.277,17.806c-1.162,1.249-2.72,1.117-4.193,1.13
		c-3.911,0.036-7.824,0.104-11.733-0.057c-7.086-0.364-14.179-0.654-21.24-1.419c-4.585-0.358-9.166-0.768-13.718-1.433
		C75.139,190.519,73.823,190.577,73.551,189.032z"/>
	<path fill="#74BDEC" d="M110.946,192.554c5.387-0.032,10.773-0.064,16.16-0.096c1.403-0.006,2.808-0.012,4.209-0.017
		c0.643-0.537,1.386-0.927,2.211-0.906c6.951,0.177,13.854-0.968,20.804-0.784c1.046,0.028,2.089,0.162,2.887,0.973
		c6.896,0.184,12.306,3.213,16.679,8.454c1.08,1.295,0.828,1.94-0.369,2.692c-2.33,2.041-5.301,1.713-8.006,1.877
		c-16.354,0.988-32.721,1.91-49.121,1.52c-1.95-0.047-4.029,0.363-5.677-1.188C109.992,200.892,110.558,196.725,110.946,192.554z"/>
	<path fill="#FEFEFE" d="M157.216,191.723c-8.643-0.093-17.245,1.229-25.901,0.718c-1.569-4.728-1.676-9.219,1.312-13.605
		c3.775-5.541,9.283-7.567,15.52-8.107c8.114-0.703,15.715,0.977,22.552,5.583c-2.997,4.012-6.069,7.96-9.679,11.452
		c-0.961,0.929-1.754,1.887-1.566,3.333C158.682,191.215,157.844,191.094,157.216,191.723z"/>
	<path fill="#74BDEC" d="M127.801,141.244c0.174,7.17-0.479,14.269-2.213,21.226c-0.514,2.062-0.943,5.081-3.517,5.054
		c-2.366-0.024-2.739-2.998-3.185-4.947c-3.126-13.669-2.954-27.378,0.125-41.027c0.459-2.04,0.85-5.248,3.292-5.226
		c2.667,0.024,2.88,3.225,3.486,5.446C127.525,128.15,127.902,134.673,127.801,141.244z"/>
	<path fill="#74BDEC" d="M156.012,155.09c-1.158-8.706-1.871-17.436-1.492-26.232c0.125-2.934,0.527-5.815,1.295-8.639
		c0.451-1.662,0.713-3.875,2.82-3.964c1.908-0.081,2.321,2.036,2.943,3.503c2.639,6.22,3.461,12.871,3.965,19.484
		c0.55,7.217,0.867,14.5-0.395,21.716c-0.039,0.23-0.006,0.479-0.078,0.697c-0.746,2.263-0.7,5.688-3.576,5.801
		c-2.689,0.104-2.662-3.269-3.479-5.323c-0.343-0.864-0.56-1.778-0.834-2.669C155.207,158.43,156.652,156.481,156.012,155.09z"/>
	<path fill="#74BDEC" d="M79.284,147.75c0.188-6.917,0.85-15.06,2.854-23.038c0.455-1.808,1.074-3.589,1.782-5.315
		c0.565-1.379,1.182-3.171,2.919-3.112c1.845,0.063,1.997,2.019,2.516,3.417c1.667,4.488,1.629,9.277,1.605,13.871
		c-0.047,9.096-0.589,18.229-3.226,27.055c-0.466,1.56-1.106,3.079-1.792,4.559c-0.532,1.147-1.103,2.583-2.673,2.378
		c-1.302-0.169-1.671-1.479-2.056-2.606C79.446,159.782,79.329,154.413,79.284,147.75z"/>
	<path fill="#74BDEC" d="M73.551,189.032c5.317,1.489,10.87,1.206,16.259,2.149c1.945,3.479,1.244,7.177,0.692,10.779
		c-0.309,2.02-2.281,1.977-3.904,2.102c-4.16,0.037-8.374,0.441-12.25-1.648c-0.676-0.041-1.352-0.082-2.028-0.123
		c-4.663-0.693-9.326-1.393-13.99-2.078c-0.791-0.115-1.645,0.023-2.284-0.629c0.854-4.846-0.406-9.25-2.805-13.415
		c6.101,0.895,12.202,1.789,18.304,2.684C72.214,188.912,72.883,188.972,73.551,189.032z"/>
	<path fill="#FEFEFE" d="M194.634,46.891c6.177,1.896,10.552,6.041,14.063,11.266c3.396,5.32,4.416,11.226,4.188,17.404
		c-0.062,1.708-0.447,3.404-0.686,5.105c-4.334-1.998-8.792-3.745-11.932-7.667C194.034,65.21,193.094,56.33,194.634,46.891z"/>
	<path fill="#F3F3F3" d="M156.012,155.09c0.391,1.458,0.781,2.916,1.172,4.374c-1.1-0.264-2.211-0.489-3.293-0.811
		c-0.387-0.115-0.705-0.462-1.033-0.688C153.525,156.402,155.975,157.115,156.012,155.09z"/>
	<path fill="#5F2E00" d="M138.537,244.107c20.411,6.463,37.572,15.305,44.316,36.703c1.371,4.35,2.817,8.677,4.308,12.988
		c0.479,1.394,0.539,2.158-1.322,2.134c-17.596-0.233-35.124-1.004-52.151-6.083c-1.008-0.301-2.027-0.613-2.975-1.062
		c-3.041-1.438-6.058-4.119-9.07-4.102c-3.039,0.02-5.971,2.865-9.198,3.973c-16.824,5.77-34.193,6.372-51.718,5.506
		c-3.013-0.148-6.022-0.396-9.381-0.621c10.683-22.805,24.994-41.358,50.378-48.928c-0.33,0.484-0.47,0.807-0.708,1.021
		c-8.768,7.886-6.513,18.994,3.255,24.531c9.815,5.564,19.965,5.512,29.735-0.228c7.734-4.543,9.95-11.44,6.914-19.847
		C140.292,248.358,139.557,246.66,138.537,244.107z"/>
	<path fill="#F69F87" d="M27.944,241.061c1.275-4.879,3.346-9.183,6.841-13.056c7.257-8.047,22.412-9.512,31.499-1.717
		c1.313,1.129,2.564,2.328,3.844,3.496c4.399,6.486,6.262,13.467,4.208,21.24c-2.15,8.143-10.942,15.695-18.386,16.828
		C39.838,270.308,26.362,257.934,27.944,241.061z"/>
	<path fill="#F89C85" d="M191.298,266.375c-11.438,0.808-23.554-10.717-22.833-24.406c0.667-12.629,10.342-22.659,23.733-22.584
		c13.114,0.074,23.317,10.541,23.354,23.553C215.589,256.645,204.973,266.935,191.298,266.375z"/>
	<path fill="#663707" d="M122.245,217.955c0.86-2.018,1.483-4.154,3.256-5.668c2.979-2.547,7.021-2.933,10.39-0.918
		c3.782,2.26,4.909,5.76,3.631,11.281c-2.971,4.395-6.391,5.977-10.561,4.891C125.02,226.512,122.829,223.384,122.245,217.955z"/>
	<path fill="#5C2E01" d="M100.5,224.806c-2.816-5.321-2.352-9.682,1.34-12.626c5.694-4.542,14.065-1.334,14.722,7.052
		C114.041,228.153,107.654,230.369,100.5,224.806z"/>
	<path fill="#FEFEFE" d="M34.967,52.787c-0.948-4.912,1.784-9.064,5.738-12.599c2.181-1.949,4.938-1.228,7.347-0.673
		c2.538,0.585,4.686,2.246,5.896,4.649c3.14,6.234,3.244,12.582,0.009,18.798c-2.165,4.161-6.283,5.32-10.395,4.647
		c-5.016-0.821-8.164-5.069-8.583-10.545C34.891,55.901,34.967,54.726,34.967,52.787z"/>
	<path fill="#74BDEC" d="M110.894,204.541c-7.712,0.283-15.379-0.595-23.068-0.902c-0.543-0.021-1.074-0.354-1.611-0.541
		c2.794,0.361,3.928-0.725,3.659-3.65c-0.251-2.734-0.059-5.509-0.062-8.266c7.045,0.458,14.09,0.916,21.135,1.373
		C112.353,196.556,111.56,200.546,110.894,204.541z"/>
</g>
</svg>
