<?xml version="1.0" encoding="utf-8"?>
<!-- Generator: Adobe Illustrator 16.0.4, SVG Export Plug-In . SVG Version: 6.00 Build 0)  -->
<!DOCTYPE svg PUBLIC "-//W3C//DTD SVG 1.1//EN" "http://www.w3.org/Graphics/SVG/1.1/DTD/svg11.dtd">
<svg version="1.1" xmlns="http://www.w3.org/2000/svg" xmlns:xlink="http://www.w3.org/1999/xlink" x="0px" y="0px" width="1265px"
	 height="230.085px" viewBox="0 0 1265 230.085" enable-background="new 0 0 1265 230.085" xml:space="preserve">
<g id="Layer_1">
	<g id="Layer_1_1_">
	</g>
	<path fill="#83C85B" d="M1289.851,310.443c0-146.727-294.306-216.42-657.351-216.42s-657.351,69.693-657.351,216.42
		S269.455,576.115,632.5,576.115S1289.851,457.169,1289.851,310.443z"/>
	<rect x="686.865" fill="#666666" stroke="#595959" stroke-width="1.1186" stroke-miterlimit="10" width="20.146" height="38.389"/>
	<path fill="#DDA276" d="M519.926,51.852v49.225h225.148V51.852H519.926z M592.835,90.153h-55.224V65.862h55.224V90.153z"/>
	<rect x="537.611" y="65.862" fill="#DDA276" width="55.224" height="24.291"/>
	<g>
		<path fill="#F2E3BC" d="M518.926,59.542v34.124h227.148V59.542H518.926z M592.835,90.153h-55.224V65.862h55.224V90.153z"/>
		<g>
			<path fill="#F2E3BC" d="M519.243,59.857l0.409,8.216l0.355,8.531l0.309,8.531l0.256,8.531l-1.646-1.646
				c4.732-0.146,9.465-0.272,14.197-0.363c4.732-0.093,9.464-0.228,14.197-0.286l14.197-0.203c4.732-0.085,9.464-0.082,14.197-0.124
				l14.197-0.088l14.197,0.042l14.197,0.209l14.197,0.346l28.394,0.78c4.732,0.149,9.465,0.201,14.196,0.283
				c4.732,0.101,9.465,0.082,14.197,0.122c4.732,0.047,9.465-0.002,14.196-0.014c4.732-0.003,9.465-0.076,14.197-0.132
				c4.732-0.037,9.465-0.174,14.196-0.267l14.197-0.307l-1.649,1.65L744,76.604c-0.153-5.688-0.265-11.375-0.373-17.062l2.447,2.447
				l-14.197,0.212l-14.196,0.149l-28.394,0.266l-14.197,0.128l-14.196,0.016c-4.732,0.001-9.465,0.028-14.197-0.026L632.5,62.625
				c-9.464-0.044-18.929-0.219-28.394-0.345l-14.197-0.254l-14.197-0.293c-9.464-0.225-18.929-0.475-28.394-0.779l-14.197-0.52
				C528.496,60.273,523.869,60.083,519.243,59.857z M518.926,59.241c4.732-0.234,9.464-0.426,14.197-0.591l14.197-0.52
				c9.464-0.304,18.929-0.554,28.394-0.779l14.197-0.293l14.197-0.254c9.464-0.125,18.929-0.3,28.394-0.345l14.196-0.109
				c4.732-0.055,9.465-0.028,14.197-0.026l14.196,0.016l14.197,0.128l28.394,0.266l14.196,0.149l14.197,0.212l2.493,0.037
				l-0.046,2.41c-0.108,5.688-0.22,11.375-0.373,17.062l-0.425,17.062l-0.042,1.685l-1.607-0.035l-14.197-0.307
				c-4.731-0.093-9.464-0.23-14.196-0.267c-4.732-0.057-9.465-0.129-14.197-0.132c-4.731-0.012-9.464-0.061-14.196-0.014
				c-4.732,0.04-9.465,0.021-14.197,0.122c-4.731,0.082-9.464,0.133-14.196,0.283L632.5,95.78l-14.197,0.346l-14.197,0.209
				l-14.197,0.042l-14.197-0.088c-4.732-0.042-9.464-0.039-14.197-0.124l-14.197-0.203c-4.732-0.058-9.464-0.193-14.197-0.286
				c-4.732-0.09-9.464-0.216-14.197-0.363l-1.694-0.053l0.048-1.594l0.256-8.531l0.309-8.531l0.355-8.531l0.439-8.818
				L518.926,59.241z"/>
			<path fill="#F2E3BC" d="M592.835,90.454c-2.301,0.417-4.602,0.718-6.903,0.983c-1.15,0.148-2.301,0.248-3.452,0.359
				c-1.15,0.106-2.301,0.232-3.451,0.302l-3.452,0.246c-1.15,0.092-2.301,0.131-3.452,0.2c-2.301,0.112-4.602,0.192-6.903,0.25
				c-2.301,0.045-4.602,0.091-6.903,0.063c-2.301-0.027-4.602-0.131-6.903-0.305c-1.151-0.094-2.301-0.163-3.452-0.278l-3.452-0.327
				c-2.301-0.232-4.602-0.426-6.903-0.601l-1.269-0.096l0.076-1.097c0.139-2.024,0.22-4.049,0.268-6.073
				c0.038-2.024,0-4.048-0.029-6.073c-0.001-1.012-0.07-2.024-0.102-3.036c-0.038-1.012-0.079-2.024-0.152-3.037
				c-0.115-2.024-0.278-4.048-0.441-6.073l-0.121-1.506l1.771-0.144c4.602-0.374,9.204-0.798,13.806-0.969
				c2.301-0.112,4.602-0.174,6.903-0.257l6.903-0.213c2.301-0.063,4.602-0.131,6.903-0.142c1.15-0.021,2.301,0,3.452-0.001
				c1.15-0.003,2.301,0.025,3.451,0.044c4.602,0.073,9.204,0.304,13.806,0.53l2.821,0.139l-0.163,2.519l-0.393,6.073l-0.248,3.037
				l-0.258,3.036c-0.204,2.024-0.388,4.048-0.638,6.073c-0.224,2.024-0.507,4.048-0.821,6.073l-0.04,0.254L592.835,90.454z
				 M592.486,89.802c-0.293-1.907-0.562-3.814-0.774-5.722c-0.25-2.024-0.434-4.048-0.638-6.073l-0.258-3.036l-0.248-3.037
				l-0.393-6.073l2.658,2.658c-4.602,0.227-9.204,0.457-13.806,0.53c-1.15,0.019-2.301,0.048-3.451,0.044
				c-1.15-0.001-2.301,0.019-3.452-0.001c-2.301-0.011-4.602-0.079-6.903-0.142l-6.903-0.213c-2.301-0.083-4.602-0.145-6.903-0.257
				c-4.602-0.171-9.204-0.595-13.806-0.969l1.65-1.65c-0.163,2.024-0.326,4.049-0.441,6.073c-0.073,1.012-0.114,2.024-0.152,3.037
				c-0.032,1.012-0.101,2.024-0.102,3.036c-0.028,2.024-0.067,4.048-0.029,6.073c0.048,2.024,0.129,4.048,0.268,6.073l-1.193-1.193
				c2.301-0.175,4.602-0.369,6.903-0.601l3.452-0.327c1.15-0.115,2.301-0.184,3.452-0.278c2.301-0.174,4.602-0.278,6.903-0.305
				c2.301-0.028,4.602,0.018,6.903,0.063c2.301,0.058,4.602,0.138,6.903,0.25c1.151,0.068,2.301,0.107,3.452,0.2l3.452,0.246
				c1.15,0.07,2.301,0.195,3.451,0.302c1.15,0.111,2.301,0.21,3.452,0.359C588.117,89.12,590.301,89.417,592.486,89.802z"/>
		</g>
	</g>
	<g>
		<rect x="537.611" y="65.862" fill="#F2E3BC" width="55.224" height="24.291"/>
		<path fill="#F2E3BC" d="M537.96,89.802c2.185-0.385,4.37-0.682,6.554-0.934c1.15-0.148,2.301-0.248,3.452-0.359
			c1.15-0.106,2.301-0.232,3.451-0.302l3.452-0.246c1.15-0.092,2.301-0.131,3.452-0.2c2.301-0.112,4.602-0.192,6.903-0.25
			c2.301-0.045,4.602-0.091,6.903-0.063c2.301,0.027,4.602,0.131,6.903,0.305c1.151,0.094,2.301,0.163,3.452,0.278l3.452,0.327
			c2.301,0.232,4.602,0.426,6.903,0.601l-1.193,1.193c0.139-2.024,0.22-4.049,0.268-6.073c0.038-2.024,0-4.048-0.029-6.073
			c-0.001-1.012-0.07-2.024-0.102-3.036c-0.038-1.012-0.079-2.024-0.152-3.037c-0.115-2.024-0.278-4.048-0.441-6.073l1.65,1.65
			c-4.602,0.374-9.204,0.798-13.806,0.969c-2.301,0.112-4.602,0.174-6.903,0.257l-6.903,0.213c-2.301,0.063-4.602,0.131-6.903,0.142
			c-1.15,0.021-2.301,0-3.452,0.001c-1.15,0.003-2.301-0.025-3.451-0.044c-4.602-0.073-9.204-0.304-13.806-0.53l2.658-2.658
			l-0.393,6.073l-0.248,3.037l-0.258,3.036c-0.204,2.024-0.388,4.048-0.638,6.073C538.522,85.987,538.253,87.895,537.96,89.802z
			 M537.31,90.153c-0.314-2.024-0.597-4.048-0.821-6.073c-0.25-2.024-0.434-4.048-0.638-6.073l-0.258-3.036l-0.248-3.037
			l-0.393-6.073l-0.163-2.519l2.821-0.139c4.602-0.227,9.204-0.457,13.806-0.53c1.15-0.019,2.301-0.048,3.451-0.044
			c1.15,0.001,2.301-0.019,3.452,0.001c2.301,0.011,4.602,0.079,6.903,0.142l6.903,0.213c2.301,0.083,4.602,0.145,6.903,0.257
			c4.602,0.171,9.204,0.595,13.806,0.969l1.771,0.144l-0.121,1.506c-0.163,2.024-0.326,4.049-0.441,6.073
			c-0.073,1.012-0.114,2.024-0.152,3.037c-0.032,1.012-0.101,2.024-0.102,3.036c-0.028,2.024-0.067,4.048-0.029,6.073
			c0.048,2.024,0.129,4.048,0.268,6.073l0.076,1.097l-1.269,0.096c-2.301,0.175-4.602,0.369-6.903,0.601l-3.452,0.327
			c-1.15,0.115-2.301,0.184-3.452,0.278c-2.301,0.174-4.602,0.278-6.903,0.305c-2.301,0.028-4.602-0.018-6.903-0.063
			c-2.301-0.058-4.602-0.138-6.903-0.25c-1.151-0.068-2.301-0.107-3.452-0.2l-3.452-0.246c-1.15-0.07-2.301-0.195-3.451-0.302
			c-1.15-0.111-2.301-0.21-3.452-0.359c-2.301-0.265-4.602-0.567-6.903-0.983l-0.262-0.047L537.31,90.153z"/>
	</g>
	<polygon fill="#FAAAB5" stroke="#D88794" stroke-miterlimit="10" points="739.999,24.926 525.001,24.926 505.001,51.852 
		759.999,51.852 	"/>
	<path fill="#F6F5E6" d="M625.671,101.076c0,0-1.491,21.31-17.909,27.28s-13.436,8.956-14.927,22.39
		c-1.491,13.432,1.494,29.852-10.446,43.282c-11.938,13.433-31.343,38.806-31.343,38.806l135.82,7.463
		c0,0-23.881-26.862-19.402-47.76c4.479-20.896-1.491-26.865-7.462-41.791c-5.971-14.927-19.404-21.975-19.404-35.822
		c0-13.847,0-13.848,0-13.848"/>
	
		<rect x="537.611" y="65.732" fill="#B7E9F7" stroke="#D6BF8B" stroke-width="2" stroke-miterlimit="10" width="55.224" height="0.13"/>
	
		<rect x="537.611" y="65.862" fill="#B7E9F7" stroke="#D6BF8B" stroke-width="2" stroke-miterlimit="10" width="55.224" height="24.161"/>
	
		<rect x="711.238" y="65.732" fill="#B7E9F7" stroke="#D6BF8B" stroke-width="1.2081" stroke-miterlimit="10" width="20.146" height="24.291"/>
	
		<rect x="676.791" y="65.732" fill="#B7E9F7" stroke="#D6BF8B" stroke-width="1.2081" stroke-miterlimit="10" width="20.148" height="24.291"/>
	<rect x="625.671" y="69.264" fill="#DAEBF6" stroke="#BFCFD8" stroke-miterlimit="10" width="14.926" height="31.344"/>
	<rect x="628.562" y="72.335" fill="#FFFFFF" width="4.188" height="11.438"/>
	<rect x="633.938" y="72.335" fill="#FFFFFF" width="4.188" height="11.438"/>
	<circle fill="#231F20" cx="638.125" cy="86.96" r="0.688"/>
	<rect x="629.938" y="89.835" fill="#90CEE0" width="7.5" height="0.875"/>
</g>
<g id="Layer_2">
	<g id="am7zbg.tif">
		<g>
			<path fill="#75BCEC" d="M577.769,66.054c0.146-0.05,0.293-0.036,0.441-0.031c0.091-0.019,0.127-0.097,0.18-0.161h-0.714
				c-0.033,0.048-0.072,0.089-0.104,0.139C577.621,66.08,577.695,66.079,577.769,66.054z"/>
			<path fill="#75BCEC" d="M582.348,66.809c0.037,0.181,0.021,0.385,0.18,0.526c0.338,0.075,0.647-0.069,0.968-0.13
				c0.447-0.122,0.903-0.211,1.346-0.352c0.521-0.167,0.979-0.047,1.387,0.302c0.337,0.318,0.549,0.708,0.648,1.158
				c0.093,0.428,0.084,0.863,0.032,1.292c-0.09,0.752-0.489,1.255-1.248,1.441c-0.291,0.071-0.58,0.149-0.869,0.225
				c-0.188,0.049-0.269,0.158-0.238,0.345c0.028,0.173,0.036,0.348,0.057,0.521c0.103,0.858,0.198,1.717,0.28,2.578
				c0.069,0.728,0.124,1.457,0.22,2.182c0.122,0.157,0.192,0.004,0.253-0.056c0.213-0.212,0.433-0.409,0.73-0.495
				c-0.046-0.394-0.093-0.79-0.138-1.184c-0.109-0.948-0.222-1.896-0.384-2.835c-0.042-0.24-0.004-0.363,0.26-0.415
				c1.385-0.267,1.93-1.544,1.905-2.708c-0.019-0.916-0.352-1.744-0.961-2.432c-0.593-0.67-1.297-1.049-2.235-0.748
				c-0.417,0.133-0.854,0.202-1.282,0.308c-0.163,0.041-0.257,0.015-0.312-0.168c-0.03-0.103-0.075-0.2-0.115-0.299h-0.796
				C582.188,66.157,582.282,66.476,582.348,66.809z"/>
			<path fill="#DB8954" d="M586.302,77.829c-0.328-0.008-0.606,0.131-0.875,0.297c-0.035,0.113,0.038,0.189,0.096,0.268
				c0.369,0.497,0.625,1.05,0.826,1.631c0.302,1.001,0.34,2.016,0.085,3.028c-0.42,1.672-1.447,2.888-2.899,3.772
				c-0.09,0.055-0.204,0.083-0.248,0.196c0,0.035,0.01,0.065,0.022,0.097c0.103,0.282,0.074,0.425-0.111,0.545
				c-0.187,0.121-0.417,0.08-0.604-0.11c-0.052-0.052-0.09-0.121-0.165-0.146c-0.285,0.034-0.566,0.073-0.788,0.283
				c0.098,0.153,0.262,0.191,0.42,0.235c0.293,0.082,0.596,0.136,0.881,0.25c0.085,0.015,0.159-0.003,0.213-0.075
				c0.386-0.211,0.787-0.395,1.16-0.632c2.348-1.496,3.685-4.107,3.189-6.88C587.324,79.572,586.91,78.658,586.302,77.829z"/>
			<path fill="#DB8A55" d="M575.216,86.298c-0.786-0.617-1.387-1.382-1.801-2.29c-0.445-0.976-0.592-2-0.445-3.065
				c0.043-0.456,0.218-0.882,0.304-1.328c-0.201-0.162-0.383-0.338-0.494-0.579c-0.033-0.074-0.094-0.137-0.184-0.156
				c-0.79,1.57-0.886,3.194-0.361,4.86c0.313,0.993,0.876,1.838,1.571,2.603c0.082,0.07,0.163,0.141,0.244,0.211
				c0.322-0.02,0.617,0.045,0.876,0.256c0.148,0.12,0.289,0.097,0.387-0.081c0.035-0.065,0.093-0.117,0.107-0.192
				C575.399,86.419,575.299,86.363,575.216,86.298z"/>
			<path fill="#70B5E2" d="M574.106,65.862h1.368C575.03,65.664,574.573,65.666,574.106,65.862z"/>
			<path fill="#70B5E2" d="M572.851,67.072c-0.654,1.221-0.743,2.444-0.034,3.677c0.253,0.157,0.512,0.307,0.805,0.368
				c0.328,0.068,0.661,0.117,0.987-0.022c-0.004-0.135-0.125-0.134-0.207-0.172c-0.574-0.263-1.063-0.605-1.202-1.278
				c-0.022-0.071-0.031-0.146-0.044-0.219c-0.06-0.313-0.059-0.633-0.023-0.943c0.081-0.708,0.333-1.337,0.981-1.732
				c0.401-0.215,0.806-0.217,1.211-0.017c0.283,0.139,0.561,0.285,0.848,0.414c0.034,0.02,0.068,0.037,0.105,0.051
				c0.342,0.099,0.678,0.222,1.03,0.287c0.272,0.051,0.337,0.016,0.427-0.246c0.127-0.369,0.237-0.744,0.449-1.077
				c0.031-0.048,0.052-0.105,0.019-0.164c-0.083-0.081-0.187-0.037-0.281-0.045c-0.121-0.009-0.222,0.121-0.353,0.05
				c-0.083,0.144-0.182,0.281-0.246,0.433c-0.053,0.127-0.105,0.154-0.241,0.119c-0.479-0.124-0.933-0.299-1.352-0.566
				c-0.086-0.055-0.173-0.086-0.26-0.125h-1.368c-0.035,0.015-0.07,0.02-0.105,0.037C573.475,66.152,573.121,66.568,572.851,67.072z
				"/>
			<path fill="#D52D00" d="M581.206,90.129c-0.22-0.056-0.4-0.192-0.556-0.36c-0.264-0.285-0.288-0.489-0.085-0.82
				c0.051-0.084,0.126-0.17-0.006-0.251c-0.357-0.027-0.718-0.101-1.067,0.051c-0.061,0.369,0.035,0.698,0.255,0.995
				c0.024,0.154,0.113,0.278,0.187,0.408h1.393C581.286,90.144,581.246,90.139,581.206,90.129z"/>
			<path fill="#D52D00" d="M582.925,90.036c-0.108,0.053-0.218,0.085-0.327,0.117h0.453c-0.001-0.002-0.001-0.005-0.002-0.007
				C583.045,90.067,583.016,90.017,582.925,90.036z"/>
			<path fill="#D52D00" d="M576.693,89.385c-0.043-0.071-0.081-0.172-0.202-0.148c-0.202,0.164-0.35,0.375-0.491,0.589
				c-0.069,0.106-0.126,0.216-0.183,0.327h1.905C577.306,90.044,576.953,89.81,576.693,89.385z"/>
			<path fill="#74BDEC" d="M575.031,71.143c-0.142-0.027-0.264-0.151-0.424-0.089c-0.339,0.076-0.675,0.061-1.016-0.012
				c-0.276-0.058-0.48-0.291-0.773-0.293c0.115,0.181,0.248,0.349,0.406,0.493c0.237,0.217,0.525,0.347,0.825,0.45
				c0.156,0.054,0.209,0.112,0.169,0.301c-0.147,0.687-0.272,1.379-0.389,2.073c-0.12,0.708-0.262,1.415-0.318,2.133
				c0.086,0.131,0.21,0.064,0.314,0.047c0.26-0.043,0.508-0.072,0.661,0.211c0.169-0.142,0.041-0.357,0.125-0.52
				c0.024-0.123,0.026-0.248,0.042-0.372c0.169-1.345,0.358-2.688,0.605-4.021C575.294,71.344,575.246,71.197,575.031,71.143z"/>
			<path fill="#CC2400" d="M578.386,90.296c0.138-0.006,0.282-0.035,0.413,0.046c0.037-0.049,0.074-0.099,0.11-0.148
				c0.01-0.013,0.016-0.028,0.025-0.042h-1.433C577.767,90.257,578.058,90.312,578.386,90.296z"/>
			<path fill="#CC2400" d="M579.343,88.716c-0.105-0.057-0.222-0.037-0.334-0.043c-0.398-0.018-0.778-0.138-1.169-0.2
				c-0.121-0.019-0.246-0.061-0.342,0.062c-0.384,0.165-0.728,0.387-1.006,0.703c0.037,0.043,0.083,0.082,0.111,0.13
				c0.229,0.397,0.537,0.643,0.899,0.785h1.433c0.28-0.39,0.382-0.845,0.461-1.307C579.405,88.796,579.386,88.749,579.343,88.716z"
				/>
			<path fill="#70B4E1" d="M586.094,76.345c-0.128-0.087-0.219,0.021-0.316,0.07c-0.25,0.125-0.4,0.37-0.619,0.533
				c-0.098,0.125-0.081,0.307-0.204,0.419c-0.079,0.193-0.102,0.398-0.116,0.604c-0.01,0.14,0.019,0.268,0.195,0.289
				c0.147,0.002,0.291-0.006,0.408-0.115c0.287-0.106,0.573-0.211,0.86-0.316c-0.047-0.079-0.089-0.156-0.089-0.253
				C586.21,77.162,586.148,76.753,586.094,76.345z"/>
			<path fill="#D38450" d="M573.588,77.742c-0.08-0.03-0.151-0.095-0.248-0.062c-0.297,0.37-0.563,0.758-0.743,1.201
				c0.097,0.132,0.18,0.272,0.265,0.412c0.086,0.141,0.181,0.302,0.387,0.303c0.067-0.011,0.094-0.063,0.118-0.117
				c0.203-0.45,0.439-0.879,0.744-1.269c0.051-0.064,0.107-0.134,0.052-0.226C573.976,77.893,573.766,77.854,573.588,77.742z"/>
			<path fill="#70B5E1" d="M574.162,76.144c-0.223-0.023-0.43,0.107-0.652,0.054c-0.081,0.125-0.065,0.273-0.077,0.409
				c-0.033,0.357-0.149,0.708-0.092,1.073c0.074,0.036,0.146,0.072,0.219,0.108c0.101-0.023,0.106-0.112,0.138-0.188
				c0.111-0.275,0.273-0.493,0.609-0.505c0.081-0.003,0.17-0.01,0.201-0.112c0.021-0.179,0.065-0.361-0.047-0.529
				C574.494,76.222,574.361,76.164,574.162,76.144z"/>
			<path fill="#FEFEFE" d="M577.667,67.25c-0.055,0.188-0.141,0.229-0.325,0.175c-0.356-0.104-0.718-0.188-1.08-0.28
				c-0.175,0.044-0.122,0.193-0.123,0.301c-0.009,0.655,0.008,1.311-0.008,1.965c-0.016,0.699-0.226,1.292-0.959,1.558
				c-0.096,0.036-0.208,0.078-0.208,0.216c0.131,0.052,0.283,0.063,0.243,0.288c-0.138,0.748-0.268,1.498-0.378,2.251
				c-0.108,0.736-0.228,1.472-0.273,2.216c-0.116,0.309,0.155,0.371,0.318,0.502s0.31,0.134,0.454-0.035
				c0.133-0.159,0.302-0.23,0.51-0.159c0.203,0.069,0.258,0.241,0.29,0.427c0.021,0.116,0.01,0.232,0.015,0.349
				c0.006,0.147-0.006,0.299,0.063,0.438c0.045,0.034,0.097,0.042,0.152,0.038c0.208-0.061,0.232-0.271,0.321-0.419
				c0.426-0.708,1.075-0.939,1.85-0.857c0.722,0.077,1.236,0.452,1.467,1.167c0.041,0.124,0.059,0.263,0.183,0.343
				c0.095,0.035,0.188,0.039,0.277-0.015c0.072-0.083,0.043-0.174,0.015-0.26c-0.069-0.206-0.014-0.395,0.073-0.578
				c0.145-0.305,0.393-0.496,0.711-0.582c0.617-0.165,1.217-0.12,1.782,0.207c0.072,0.042,0.139,0.095,0.23,0.062
				c0.278-0.289,0.427-0.651,0.566-1.016c0.181-0.478,0.229-0.986,0.334-1.482c0.17-0.808,0.262-1.608,0.096-2.424
				c-0.037-0.182-0.001-0.267,0.208-0.293c0.666-0.085,1.176-0.432,1.544-0.989c0.121-0.182,0.219-0.374,0.211-0.601
				c-0.046-0.114-0.158-0.138-0.252-0.187c-0.222-0.113-0.43-0.241-0.591-0.442c-0.362-0.451-0.42-0.977-0.402-1.525
				c0.003-0.106,0.045-0.214-0.017-0.315c-0.068-0.082-0.167-0.1-0.262-0.132c-0.399-0.136-0.8-0.076-1.201-0.013
				c-0.332,0.053-0.652,0.174-0.994,0.151c-0.081-0.069-0.167-0.055-0.258-0.023c-0.218,0.077-0.226,0.059-0.218-0.167
				c0.016-0.458-0.069-0.874-0.26-1.246h-3.455c-0.036,0.046-0.076,0.087-0.111,0.134C577.957,66.384,577.795,66.812,577.667,67.25z
				"/>
			<path fill="#DCF0FD" d="M586.256,67.099c-0.182,0.001-0.189,0.155-0.233,0.271c-0.097,0.259-0.061,0.537-0.106,0.804
				c0.001,0.024,0,0.051,0.013,0.072c0.234,0.419,0.289,0.87,0.235,1.339c-0.006,0.06,0.004,0.115,0.039,0.165
				c-0.296,0.931-0.911,1.474-1.903,1.547c-0.173,0.013-0.147,0.113-0.131,0.226c0.056,0.409,0.169,0.819,0.127,1.23
				c-0.062,0.607-0.177,1.209-0.274,1.812c-0.115,0.715-0.377,1.373-0.768,1.981c-0.323,0.23-0.518,0.579-0.791,0.856
				c-0.075,0.077-0.078,0.186,0.049,0.244c0.024,0.006,0.048,0.014,0.073,0.014c0.764-0.002,1.513-0.134,2.267-0.235
				c0.058-0.008,0.108-0.039,0.153-0.078c0.227-0.066,0.118-0.261,0.153-0.4c0.001-0.416-0.067-0.826-0.104-1.238
				c-0.054-0.603-0.099-1.206-0.164-1.808c-0.085-0.782-0.185-1.562-0.28-2.343c-0.016-0.132,0.036-0.186,0.17-0.217
				c0.371-0.087,0.737-0.194,1.104-0.295c0.479-0.132,0.795-0.454,0.958-0.905c0.25-0.691,0.24-1.399,0.029-2.1
				C586.761,67.672,586.565,67.344,586.256,67.099z"/>
			<path fill="#D5E7F4" d="M585.124,66.721c-0.549,0.095-1.082,0.279-1.622,0.425c0.25,0.001,0.5-0.013,0.748,0.007
				c0.245,0.019,0.493,0.047,0.705,0.196c0.337,0.233,0.698,0.438,0.933,0.79c0.013,0.021,0.043,0.02,0.068,0.011
				c0.079-0.08,0.049-0.178,0.058-0.275c0.027-0.272,0.006-0.567,0.243-0.776C585.942,66.78,585.539,66.649,585.124,66.721z"/>
			<path fill="#D9EDF8" d="M581.958,67.237c-0.016,0.072-0.007,0.154,0.075,0.194c0.073,0.036,0.128-0.008,0.173-0.058
				c0.085-0.096,0.197-0.067,0.302-0.075c-0.097-0.489-0.17-0.987-0.398-1.436h-0.413c0.118,0.215,0.213,0.447,0.253,0.717
				C581.981,66.798,582.005,67.016,581.958,67.237z"/>
			<path fill="#D28450" d="M577.587,87.559c-0.041-0.029-0.086-0.053-0.133-0.069c-0.646-0.228-1.271-0.495-1.836-0.893
				c-0.06-0.042-0.126-0.085-0.208-0.053c-0.027,0.019-0.067,0.031-0.079,0.056c-0.133,0.286-0.278,0.245-0.5,0.071
				c-0.221-0.174-0.493-0.269-0.78-0.116c0.353,0.37,0.761,0.671,1.192,0.938c0.704,0.436,1.445,0.787,2.261,0.959
				c0.097-0.227,0.076-0.482,0.175-0.71C577.713,87.665,577.648,87.604,577.587,87.559z"/>
			<path fill="#DC8F5D" d="M578.998,87.78c-0.416-0.034-0.826-0.102-1.229-0.211c-0.073-0.02-0.147-0.034-0.212,0.026
				c0.087,0.065,0.089,0.134,0.038,0.232c-0.1,0.195-0.113,0.409-0.09,0.625c-0.002,0.028-0.004,0.055-0.006,0.083
				c0.088-0.032,0.172-0.018,0.264-0.004c0.417,0.061,0.82,0.199,1.244,0.207c0.135-0.064,0.111-0.191,0.117-0.304
				c0.01-0.189-0.027-0.381,0.043-0.566C579.131,87.798,579.064,87.785,578.998,87.78z"/>
			<path fill="#F9D0B7" d="M586.197,79.864c-0.666-0.208-1.063-0.653-1.179-1.343c-0.031-0.178-0.11-0.294-0.307-0.291
				c-0.301,0.024-0.596,0.098-0.9,0.1c-0.083,0-0.162,0.023-0.22,0.091c-0.045,0.066-0.037,0.141-0.036,0.216
				c0.005,0.694-0.325,1.107-1.002,1.242c-0.498,0.099-0.99,0.064-1.478-0.066c-0.103,0.009-0.149,0.097-0.215,0.155
				c-0.2,0.175-0.426,0.215-0.665,0.104c-0.238-0.11-0.302-0.333-0.334-0.57c-0.03-0.144-0.119-0.139-0.216-0.077
				c-0.088,0.057-0.167,0.128-0.263,0.173c-0.36,0.614-0.467,0.647-1.133,0.347c-0.924-0.041-1.526-0.486-1.762-1.396
				c-0.018-0.071-0.03-0.149-0.107-0.187c-0.058-0.02-0.113-0.016-0.166,0.016c-0.083,0.076-0.08,0.178-0.082,0.278
				c-0.01,0.546,0.033,1.096-0.085,1.637c0.01,0.104,0.062,0.189,0.113,0.275c0.168,0.278,0.239,0.576,0.233,0.903
				c-0.012,0.635-0.53,1.494-1.545,1.535c-0.762,0.031-1.456-0.495-1.621-1.219c-0.049-0.213-0.052-0.428-0.062-0.644
				c-0.033-0.133-0.094-0.229-0.255-0.198c-0.152,0.932-0.033,1.838,0.288,2.714c0.436,1.188,1.209,2.125,2.212,2.881
				c0.664,0.455,1.383,0.798,2.146,1.051c0.231,0.051,0.46,0.11,0.692,0.151c0.304,0.055,0.61,0.097,0.915,0.144
				c0.067,0.079,0.162,0.075,0.252,0.08c0.672,0.033,1.336-0.034,1.995-0.165c0.088-0.018,0.18-0.033,0.242-0.112
				c0.266-0.085,0.532-0.171,0.798-0.256c0.324-0.047,0.603-0.188,0.854-0.392c0.056-0.035,0.11-0.072,0.167-0.104
				c0.756-0.424,1.401-0.979,1.94-1.656c0.701-0.881,1.127-1.882,1.229-3.001c0.07-0.771,0.034-1.545-0.242-2.286
				C586.359,79.909,586.277,79.89,586.197,79.864z"/>
			<path fill="#D38550" d="M581.652,87.692c-0.823,0.151-1.65,0.248-2.489,0.197c-0.085,0.008-0.146,0.006-0.127,0.142
				c0.031,0.233,0.062,0.475-0.03,0.707c0.119,0.002,0.238,0.004,0.357,0.007c0.044,0.018,0.088,0.036,0.132,0.055
				c0.06-0.083,0.148-0.055,0.227-0.055c0.294-0.001,0.589,0.002,0.884,0.004c0.331,0.061,0.641-0.058,0.958-0.116
				c0.034-0.09,0.119-0.075,0.188-0.093c0.411-0.103,0.82-0.208,1.204-0.394c-0.085-0.104-0.213-0.119-0.33-0.148
				C582.296,87.916,581.958,87.854,581.652,87.692z"/>
			<path fill="#EEC7AE" d="M585.442,78.145c-0.127,0.018-0.256,0.036-0.384,0.054c-0.083,0.093-0.254-0.094-0.307,0.096
				c0.173-0.004,0.185,0.117,0.205,0.248c0.067,0.43,0.26,0.778,0.602,1.067c0.253,0.214,0.549,0.284,0.841,0.386
				c-0.014-0.047-0.025-0.094-0.04-0.141C586.147,79.234,585.813,78.68,585.442,78.145z"/>
			<path fill="#D38550" d="M582.45,87.436c0.032,0.057,0.057,0.122,0.099,0.171c0.188,0.221,0.528,0.257,0.735,0.08
				c0.219-0.186,0.225-0.409,0.019-0.644C583.019,87.174,582.734,87.305,582.45,87.436z"/>
			<path fill="#EEC7AE" d="M576.047,78.277c-0.31-0.034-0.617-0.085-0.926-0.127c-0.247-0.034-0.491-0.081-0.732-0.141
				c-0.075-0.019-0.157-0.068-0.231,0.009c-0.356,0.495-0.679,1.009-0.908,1.577c-0.163,0.438-0.298,0.884-0.339,1.352
				c0.086,0.047,0.196,0.07,0.198,0.2c0.109,0,0.101-0.095,0.119-0.16c0.295-1.115,1.65-1.576,2.573-0.833
				c0.092,0.075,0.165,0.192,0.307,0.191c0.147-0.593,0.09-1.198,0.1-1.798c0.001-0.059,0.001-0.117,0.056-0.155
				C576.236,78.27,576.131,78.287,576.047,78.277z"/>
			<path fill="#F3F3F3" d="M576.208,67.099c-0.229,0.12-0.477,0.082-0.72,0.087c-0.154,0.002-0.272-0.039-0.344-0.189
				c-0.086-0.177-0.248-0.261-0.429-0.312c-0.206-0.058-0.409-0.019-0.613,0.013c-0.12,0.025-0.206,0.105-0.289,0.185
				c-0.74,0.716-0.854,1.605-0.706,2.566c0.244,0.207,0.529,0.3,0.845,0.316c0.313,0.017,0.613-0.019,0.888-0.184
				c0.047-0.029,0.106-0.072,0.161-0.026c0.049,0.043,0.025,0.108,0.015,0.165c-0.061,0.326-0.25,0.488-0.578,0.513
				c-0.356,0.026-0.647-0.071-0.872-0.37c-0.095-0.128-0.199-0.305-0.42-0.209c0.166,0.802,0.759,1.158,1.461,1.4
				c0.119,0.044,0.237,0.088,0.356,0.132c0.061-0.102,0.171-0.133,0.269-0.168c0.492-0.18,0.798-0.522,0.901-1.033
				c0.038-0.185,0.077-0.371,0.075-0.564c-0.004-0.672-0.002-1.346,0-2.019c0-0.088-0.032-0.186,0.054-0.256
				C576.244,67.13,576.226,67.114,576.208,67.099z"/>
			<path fill="#FEFEFE" d="M574.883,69.485c-0.461,0.282-0.942,0.278-1.438,0.105c-0.116-0.04-0.197-0.163-0.338-0.142
				c0.005,0.07-0.023,0.146,0.039,0.205c0.16,0,0.274,0.097,0.348,0.214c0.217,0.342,0.523,0.448,0.913,0.436
				c0.517-0.016,0.637-0.309,0.698-0.683c0.011-0.064,0.012-0.137-0.049-0.185C574.98,69.377,574.935,69.454,574.883,69.485z"/>
			<path fill="#F2F3F3" d="M574.102,66.698c0.109,0.04,0.221,0.042,0.337,0.029c0.309-0.038,0.534,0.086,0.673,0.37
				c0.031,0.063,0.074,0.14,0.132,0.135c0.323-0.028,0.679,0.17,0.963-0.132c-0.308-0.155-0.61-0.327-0.928-0.462
				C574.884,66.468,574.482,66.453,574.102,66.698z"/>
			<path fill="#CC2400" d="M581.181,90.197c0.406,0.142,0.823,0.115,1.234,0.076c0.148-0.014,0.324-0.014,0.45-0.12h-1.767
				C581.127,90.166,581.15,90.186,581.181,90.197z"/>
			<path fill="#CC2400" d="M581.564,88.634c-0.332-0.065-0.639,0.076-0.958,0.116c-0.001,0.063-0.041,0.105-0.08,0.15
				c-0.219,0.253-0.24,0.532-0.04,0.79c0.161,0.208,0.367,0.361,0.611,0.464h1.767c0.036-0.03,0.069-0.065,0.094-0.116
				C582.644,89.42,582.167,88.964,581.564,88.634z"/>
			<path fill="#F3F3F3" d="M575.835,76.166c-0.249-0.071-0.437,0.027-0.588,0.22c-0.041,0.051-0.068,0.113-0.152,0.109
				c-0.165-0.007-0.533-0.381-0.541-0.555c-0.107,0.158,0.01,0.355-0.094,0.514c0,0.198,0.001,0.396,0.001,0.595
				c-0.063,0.136,0.054,0.151,0.13,0.182c0.099,0.041,0.209,0.052,0.312,0.083c0.339,0.066,0.681,0.123,1.025,0.161
				c0.094,0.01,0.197,0.053,0.279-0.037c-0.002-0.262,0.011-0.525-0.012-0.785C576.174,76.431,576.078,76.235,575.835,76.166z"/>
			<path fill="#7ABFEC" d="M584.906,78.007c0.03-0.22,0.065-0.44,0.099-0.66c-0.22,0.025-0.44,0.054-0.661,0.076
				c-0.629,0.064-1.252,0.189-1.889,0.173c-0.062-0.044-0.118-0.049-0.16,0.026c0.174,0.132,0.403,0.12,0.589,0.225
				c0.26,0.147,0.528,0.282,0.584,0.619c0.05,0.023,0.095,0.018,0.137-0.02c0.382-0.051,0.764-0.102,1.146-0.153
				c0.086-0.084,0.222-0.007,0.308-0.096C584.915,78.209,584.89,78.119,584.906,78.007z"/>
			<path fill="#7ABFEC" d="M574.461,77.048c-0.397-0.035-0.628,0.088-0.786,0.42c-0.049,0.103-0.025,0.232-0.116,0.32
				c0.18,0.126,0.385,0.19,0.598,0.23c0.313,0.079,0.62,0.183,0.949,0.182c0.032-0.014,0.067-0.033,0.069-0.066
				c0.012-0.326,0.019-0.652-0.269-0.888C574.771,77.15,574.546,77.255,574.461,77.048z"/>
			<path fill="#F3F3F3" d="M579.354,76.428c-0.372-0.225-0.781-0.307-1.215-0.282c-0.658,0.039-1.17,0.312-1.51,0.894
				c-0.083,0.142-0.135,0.31-0.279,0.41c0.02,0.11,0.113,0.105,0.189,0.117c0.324,0.047,0.649,0.076,0.976,0.102
				c0.502,0.054,1.006,0.075,1.51,0.101c0.277,0.011,0.555,0.007,0.833,0.004c0.105-0.001,0.216,0.009,0.298-0.08
				C580.029,77.183,579.83,76.716,579.354,76.428z"/>
			<path fill="#71B6E3" d="M582.295,77.642c-0.056-0.058-0.13-0.067-0.205-0.069c-0.494-0.013-0.984,0.068-1.479,0.056
				c-0.059-0.001-0.111,0.026-0.157,0.064c-0.1,0-0.199,0-0.299,0.001c-0.383,0.002-0.765,0.004-1.148,0.007
				c-0.027,0.296-0.067,0.593-0.016,0.89c0.117,0.11,0.264,0.081,0.403,0.084c1.166,0.027,2.328-0.038,3.491-0.108
				c0.192-0.011,0.403,0.012,0.569-0.133c0.085-0.054,0.103-0.1,0.026-0.191C583.17,77.87,582.786,77.655,582.295,77.642z"/>
			<path fill="#F3F3F3" d="M581.651,76.15c-0.443,0.038-0.835,0.182-1.103,0.576c-0.213,0.312-0.205,0.631-0.093,0.967
				c0.615,0.036,1.227-0.058,1.84-0.051c0.045-0.044,0.105-0.036,0.159-0.044c-0.013-0.103,0.043-0.171,0.111-0.237
				c0.257-0.249,0.476-0.528,0.688-0.813C582.768,76.219,582.228,76.1,581.651,76.15z"/>
			<path fill="#74BCEC" d="M579.814,72.284c-0.173-0.002-0.201,0.226-0.234,0.371c-0.218,0.97-0.231,1.944-0.009,2.916
				c0.032,0.139,0.059,0.35,0.226,0.352c0.183,0.002,0.214-0.212,0.25-0.359c0.124-0.495,0.17-0.999,0.157-1.509
				c0.007-0.467-0.02-0.931-0.143-1.384C580.02,72.513,580.004,72.285,579.814,72.284z"/>
			<path fill="#74BCEC" d="M582.605,72.527c-0.044-0.104-0.073-0.255-0.209-0.249c-0.15,0.006-0.168,0.164-0.2,0.282
				c-0.055,0.201-0.083,0.405-0.092,0.614c-0.027,0.625,0.024,1.246,0.106,1.864c0.045,0.099-0.058,0.238,0.083,0.311
				c0.019,0.063,0.034,0.128,0.059,0.189c0.058,0.146,0.055,0.386,0.247,0.378c0.205-0.008,0.201-0.251,0.255-0.412
				c0.004-0.016,0.002-0.033,0.005-0.049c0.09-0.513,0.067-1.03,0.028-1.543C582.852,73.442,582.793,72.969,582.605,72.527z"/>
			<path fill="#74BCEC" d="M577.294,72.281c-0.123-0.004-0.167,0.123-0.207,0.221c-0.051,0.123-0.095,0.25-0.127,0.378
				c-0.143,0.567-0.19,1.146-0.204,1.637c0.003,0.474,0.012,0.855,0.138,1.223c0.027,0.08,0.054,0.173,0.146,0.185
				c0.112,0.015,0.153-0.088,0.191-0.169c0.048-0.105,0.094-0.213,0.127-0.324c0.188-0.627,0.226-1.277,0.229-1.923
				c0.001-0.326,0.004-0.667-0.114-0.985C577.436,72.424,577.426,72.285,577.294,72.281z"/>
			<path fill="#70B5E1" d="M576.35,77.451c-0.047-0.004-0.095-0.009-0.143-0.013c-0.434-0.063-0.867-0.127-1.301-0.191
				c0.171,0.296,0.261,0.609,0.2,0.954c0.045,0.046,0.106,0.036,0.162,0.044c0.332,0.049,0.663,0.099,0.994,0.148
				c0.048,0.002,0.096,0.006,0.145,0.008c0.275,0.149,0.575,0.12,0.871,0.117c0.115-0.009,0.255-0.006,0.277-0.149
				c0.039-0.256,0.089-0.519-0.049-0.766C577.122,77.536,576.728,77.556,576.35,77.451z"/>
			<path fill="#F2F3F3" d="M584.955,67.349c-0.109,0.67-0.042,1.302,0.4,1.855c0.224,0.279,0.54,0.403,0.848,0.545
				c0.018-0.121,0.044-0.241,0.049-0.363c0.017-0.439-0.056-0.859-0.298-1.237C585.705,67.778,585.395,67.484,584.955,67.349z"/>
			<path fill="#F3F3F3" d="M581.986,75.243c0.023,0.016,0.046,0.041,0.073,0.049c0.078,0.023,0.156,0.039,0.235,0.058
				c-0.028-0.104-0.056-0.207-0.083-0.311C582.208,75.182,582.034,75.131,581.986,75.243z"/>
			<path fill="#5F2E00" d="M584.118,83.973c-0.479-1.521-1.699-2.149-3.149-2.609c0.072,0.182,0.125,0.302,0.169,0.426
				c0.216,0.597,0.059,1.087-0.491,1.411c-0.694,0.407-1.416,0.412-2.113,0.016c-0.694-0.394-0.854-1.184-0.231-1.744
				c0.017-0.015,0.027-0.038,0.05-0.073c-1.804,0.538-2.82,1.856-3.58,3.478c0.238,0.016,0.453,0.033,0.667,0.043
				c1.245,0.062,2.48,0.019,3.675-0.391c0.229-0.079,0.438-0.281,0.654-0.282c0.214-0.001,0.428,0.189,0.644,0.292
				c0.067,0.032,0.14,0.054,0.211,0.076c1.21,0.361,2.456,0.416,3.707,0.433c0.132,0.001,0.128-0.053,0.093-0.152
				C584.318,84.589,584.215,84.282,584.118,83.973z"/>
			<path fill="#F69F87" d="M575.833,80.098c-0.646-0.554-1.722-0.45-2.238,0.122c-0.249,0.275-0.396,0.581-0.486,0.928
				c-0.112,1.199,0.845,2.078,1.99,1.904c0.529-0.08,1.154-0.617,1.307-1.195c0.146-0.553,0.013-1.049-0.299-1.51
				C576.016,80.264,575.927,80.179,575.833,80.098z"/>
			<path fill="#F89C85" d="M584.782,79.607c-0.952-0.005-1.639,0.708-1.687,1.604c-0.051,0.974,0.809,1.792,1.623,1.735
				c0.972,0.039,1.726-0.692,1.723-1.666C586.438,80.356,585.714,79.613,584.782,79.607z"/>
			<path fill="#EFC7AE" d="M583.455,78.434c-0.182,0.019-0.363,0.045-0.545,0.056c-1.221,0.067-2.442,0.126-3.665,0.1
				c-0.082-0.002-0.168,0.02-0.242-0.038c-0.101-0.098-0.229-0.083-0.352-0.082c-0.467,0.004-0.934-0.051-1.402-0.021
				c-0.281-0.016-0.562-0.032-0.843-0.048c0.093,0.921,0.86,1.649,1.858,1.591c0.027-0.087-0.022-0.162-0.041-0.241
				c-0.074-0.324,0.064-0.596,0.357-0.702c0.292-0.105,0.559,0.021,0.709,0.333c0.035,0.074,0.044,0.162,0.117,0.214
				c0.112,0.068,0.147-0.049,0.216-0.088c0.057-0.031,0.125-0.185,0.188-0.002c0.106-0.011,0.112-0.11,0.151-0.178
				c0.147-0.258,0.389-0.369,0.647-0.295c0.253,0.071,0.411,0.3,0.405,0.59c-0.001,0.074-0.027,0.149,0.023,0.217
				c0.473,0.209,0.965,0.185,1.461,0.118c0.279-0.038,0.526-0.136,0.74-0.32c0.371-0.32,0.429-0.736,0.365-1.19
				C583.555,78.443,583.505,78.438,583.455,78.434z"/>
			<path fill="#663707" d="M580.78,79.038c-0.239-0.143-0.526-0.116-0.738,0.065c-0.126,0.107-0.17,0.26-0.232,0.403
				c0.042,0.386,0.198,0.608,0.478,0.681c0.296,0.077,0.54-0.035,0.75-0.348C581.129,79.447,581.049,79.198,580.78,79.038z"/>
			<path fill="#5C2E01" d="M578.36,79.096c-0.263,0.209-0.295,0.519-0.096,0.897c0.509,0.396,0.963,0.238,1.142-0.396
				C579.36,79.001,578.765,78.773,578.36,79.096z"/>
			<path fill="#FEFEFE" d="M574.538,66.825c-0.171-0.04-0.368-0.091-0.522,0.048c-0.282,0.251-0.476,0.546-0.409,0.896
				c0,0.138-0.005,0.221,0.001,0.304c0.03,0.389,0.254,0.69,0.61,0.749c0.292,0.048,0.585-0.035,0.74-0.331
				c0.229-0.441,0.222-0.893-0.001-1.335C574.871,66.984,574.718,66.867,574.538,66.825z"/>
			<path fill="#7ABFEC" d="M577.505,77.604c0,0.195-0.013,0.393,0.005,0.587c0.019,0.208-0.062,0.285-0.26,0.259
				c0.037,0.014,0.075,0.037,0.114,0.039c0.546,0.021,1.091,0.084,1.639,0.063c0.047-0.284,0.104-0.567,0.003-0.852
				C578.507,77.668,578.006,77.635,577.505,77.604z"/>
		</g>
	</g>
	
		<rect x="537.611" y="65.927" fill="#B7E9F7" fill-opacity="0.4" stroke="#D6BF8B" stroke-width="2" stroke-miterlimit="10" width="55.224" height="24.161"/>
</g>
</svg>
